<?xml version="1.0" encoding="UTF-8" standalone="no"?>
<!-- Created with Inkscape (http://www.inkscape.org/) -->

<svg
   width="48"
   height="48"
   viewBox="0 0 12.7 12.7"
   version="1.1"
   id="svg5"
   inkscape:export-filename="C:\Users\Benja\Desktop\favicon.webp"
   inkscape:export-xdpi="96"
   inkscape:export-ydpi="96"
   inkscape:version="1.1 (c68e22c387, 2021-05-23)"
   sodipodi:docname="favicon.svg"
   xmlns:inkscape="http://www.inkscape.org/namespaces/inkscape"
   xmlns:sodipodi="http://sodipodi.sourceforge.net/DTD/sodipodi-0.dtd"
   xmlns="http://www.w3.org/2000/svg"
   xmlns:svg="http://www.w3.org/2000/svg">
  <sodipodi:namedview
     id="namedview7"
     pagecolor="#ffffff"
     bordercolor="#666666"
     borderopacity="1.0"
     inkscape:pageshadow="2"
     inkscape:pageopacity="0.0"
     inkscape:pagecheckerboard="0"
     inkscape:document-units="px"
     showgrid="false"
     units="px"
     inkscape:zoom="16"
     inkscape:cx="28.8125"
     inkscape:cy="21.59375"
     inkscape:window-width="1920"
     inkscape:window-height="1057"
     inkscape:window-x="1912"
     inkscape:window-y="-8"
     inkscape:window-maximized="1"
     inkscape:current-layer="g921" />
  <defs
     id="defs2">
    <rect
       x="115.40235"
       y="158.15244"
       width="55.917465"
       height="23.208464"
       id="rect1049" />
    <rect
       x="116.08096"
       y="158.15244"
       width="48.181313"
       height="22.665575"
       id="rect1043" />
    <rect
       x="165.21233"
       y="167.51726"
       width="3.9359381"
       height="25.515738"
       id="rect1037" />
    <rect
       x="115.40235"
       y="158.15244"
       width="55.917466"
       height="23.208463"
       id="rect1049-2" />
    <rect
       x="116.08096"
       y="158.15244"
       width="48.181311"
       height="22.665575"
       id="rect1043-8" />
    <rect
       x="165.21232"
       y="167.51726"
       width="3.9359381"
       height="25.515737"
       id="rect1037-6" />
  </defs>
  <g
     inkscape:label="Layer 1"
     inkscape:groupmode="layer"
     id="layer1">
    <g
       id="g921"
       transform="matrix(0.1129493,0,0,0.1129493,-5.7205138,-15.953943)">
      <path
         style="fill:#000000;fill-opacity:1;stroke-width:0.999998"
         d="m 83.517756,166.89748 c -6.379634,-0.2962 -11.808884,-0.54715 -12.065001,-0.55767 -0.256116,-0.0105 -0.351366,-0.0312 -0.211666,-0.0459 0.1397,-0.0147 5.832776,-0.24231 12.65128,-0.50574 11.870095,-0.45861 12.408885,-0.47273 12.670168,-0.33201 0.615504,0.33147 0.720853,1.17737 0.210232,1.68805 -0.246907,0.24694 -0.30171,0.26276 -0.958778,0.27686 -0.383295,0.008 -5.916602,-0.2274 -12.296235,-0.52359 z"
         id="path1023"
         sodipodi:nodetypes="ssssssss" />
      <path
         style="fill:#8a4900;fill-opacity:1;stroke-width:0.999998"
         d="m 92.534756,172.22723 c -7.846484,-0.29335 -14.494934,-0.54084 -14.774334,-0.54997 -0.520112,-0.017 29.118008,-0.99574 30.460078,-1.00587 0.72256,-0.005 0.74998,0.002 1.04239,0.26961 0.52909,0.48488 0.45326,1.41104 -0.14068,1.71818 -0.33678,0.17415 -0.46423,0.17083 -16.587454,-0.43195 z"
         id="path1021"
         sodipodi:nodetypes="ssssss" />
      <path
         style="fill:#e10011;fill-opacity:1;stroke-width:0.999998"
         d="m 119.69159,173.09461 c -0.27271,-0.22433 -0.29917,-0.44004 -0.0691,-0.56318 0.10012,-0.0536 0.97092,-0.0876 2.24068,-0.0876 2.00698,0 2.08005,0.006 2.16979,0.17352 0.0511,0.0954 0.081,0.27641 0.0665,0.40217 l -0.0264,0.22865 -2.07433,0.019 c -2.04304,0.0187 -2.07785,0.0161 -2.30717,-0.17252 z"
         id="path1019"
         sodipodi:nodetypes="ssssscss" />
      <path
         style="fill:#e10011;fill-opacity:1;stroke-width:0.999998"
         d="m 120.47476,174.56045 v -0.42333 h 1.651 c 1.83646,0 1.76901,-0.0251 1.55805,0.58003 l -0.093,0.26663 h -1.55804 -1.55805 z"
         id="path1017"
         sodipodi:nodetypes="ccsscccc" />
      <path
         style="fill:#e10011;fill-opacity:1;stroke-width:0.999998"
         d="m 120.30542,176.25378 v -0.42333 h 1.524 c 1.66511,0 1.58958,-0.0279 1.43488,0.52917 l -0.0882,0.3175 h -1.43535 -1.43536 z"
         id="path1015"
         sodipodi:nodetypes="ccsscccc" />
      <path
         style="fill:#e10011;fill-opacity:1;stroke-width:0.999998"
         d="m 83.941089,177.56088 c -10.430934,-0.2939 -19.079634,-0.54159 -19.219334,-0.55042 -0.300893,-0.019 39.269345,-0.99694 40.669635,-1.00509 l 0.96097,-0.006 c 0.15489,0.14748 0.3138,0.31477 0.45007,0.46647 0.11068,0.14674 0.12566,0.27201 0.12566,0.59187 0,0.43595 -0.0278,0.51042 -0.28787,0.77046 l -0.28786,0.28787 -1.72297,-0.0106 c -0.94763,-0.006 -10.257367,-0.25107 -20.688301,-0.54497 z"
         id="path1013"
         sodipodi:nodetypes="sssccsscss" />
      <path
         style="fill:#e10011;fill-opacity:1;stroke-width:0.999998"
         d="m 121.00561,178.31092 c -0.22438,-0.0433 -0.53085,-0.4066 -0.53085,-0.62922 0,-0.14691 0.0863,-0.15792 1.23848,-0.15792 h 1.23849 l -0.0562,0.35176 c -0.0309,0.19347 -0.0762,0.38397 -0.10049,0.42333 -0.0442,0.0716 -1.43288,0.0809 -1.78939,0.012 z"
         id="path1011"
         sodipodi:nodetypes="ssscsss" />
      <path
         style="fill:#f59300;fill-opacity:1;stroke-width:0.999998"
         d="m 85.149989,182.94879 c -9.672905,-0.31129 -17.604737,-0.58362 -17.626292,-0.60518 -0.08171,-0.0817 35.483563,-1.01558 35.687013,-0.93707 0.54423,0.21001 0.80139,0.88674 0.55817,1.46885 -0.14332,0.343 -0.39682,0.5382 -0.77779,0.59891 -0.1397,0.0223 -8.168195,-0.21421 -17.841101,-0.52551 z"
         id="path1009"
         sodipodi:nodetypes="ssssss" />
      <path
         style="fill:#ebe700;fill-opacity:1;stroke-width:0.999998"
         d="m 70.713949,188.28954 c -7.78716,-0.30746 -14.130811,-0.58216 -14.097001,-0.61046 0.03381,-0.0283 6.100324,-0.25036 13.48114,-0.49348 7.380817,-0.24313 13.800668,-0.46312 14.266334,-0.48888 0.793636,-0.0439 0.865228,-0.0342 1.143,0.15537 0.423783,0.28918 0.589818,0.78979 0.420724,1.26852 -0.138074,0.3909 -0.41733,0.63103 -0.801724,0.68938 -0.1397,0.0212 -6.625313,-0.21299 -14.412473,-0.52045 z"
         id="path1007"
         sodipodi:nodetypes="ssssssss" />
      <path
         style="fill:#eea5b4;fill-opacity:1;stroke-width:0.880961"
         d="m 58.47923,193.56811 c -4.318755,-0.29114 -7.837497,-0.5367 -7.819427,-0.54569 0.01807,-0.009 3.84729,-0.23643 8.509376,-0.50543 6.499131,-0.375 8.529611,-0.46745 8.704101,-0.39632 0.590032,0.24053 0.704859,1.39672 0.185286,1.86564 -0.219404,0.19801 -0.841598,0.17085 -9.579336,-0.4182 z"
         id="path1005"
         sodipodi:nodetypes="ssssss" />
      <path
         style="fill:#d2d2d2;fill-opacity:1;stroke-width:0.892206"
         d="m 54.97024,198.91518 c -3.315541,-0.37821 -4.467083,-0.53578 -4.246048,-0.58099 0.166809,-0.0341 2.33401,-0.2581 4.816,-0.49773 4.292489,-0.41442 4.522952,-0.42875 4.722563,-0.29371 0.417867,0.28269 0.559972,0.95262 0.3051,1.43832 -0.17753,0.33832 -0.385513,0.46652 -0.74499,0.45922 -0.166809,-0.003 -2.35049,-0.23969 -4.852625,-0.52511 z"
         id="path1003"
         sodipodi:nodetypes="sssssss" />
      <path
         style="fill:#59caf3;fill-opacity:1;stroke-width:0.734123"
         d="m 56.662751,204.27845 c -3.275105,-0.31421 -5.91367,-0.57631 -5.863477,-0.58244 0.460447,-0.0563 11.625662,-0.94075 11.879814,-0.9411 0.320717,-4.3e-4 0.342166,0.0121 0.490524,0.2874 0.136155,0.25264 0.155143,0.34108 0.155143,0.72265 0,0.26705 -0.03,0.51974 -0.07777,0.65502 -0.08995,0.25472 -0.31945,0.45586 -0.502547,0.44044 -0.06982,-0.006 -2.80658,-0.26777 -6.081685,-0.58197 z"
         id="path1001"
         sodipodi:nodetypes="sscsssss" />
      <path
         style="fill:#00af06;fill-opacity:1;stroke-width:0.985812"
         d="m 68.961827,209.64967 c -9.164104,-0.29347 -17.087815,-0.54307 -17.608245,-0.55466 -0.520431,-0.0116 -0.779618,-0.0336 -0.575971,-0.0488 0.630747,-0.0472 34.645799,-0.95774 35.779766,-0.95774 h 1.069697 l 0.241901,0.24891 c 0.441621,0.45442 0.407325,1.23442 -0.07255,1.64991 -0.240801,0.20849 -0.292846,0.21737 -1.212099,0.20691 -0.528273,-0.006 -8.458399,-0.25104 -17.622504,-0.54451 z"
         id="path999"
         sodipodi:nodetypes="sssscssss" />
      <path
         style="fill:#001af5;fill-opacity:1;stroke-width:0.999998"
         d="m 75.686089,214.98391 c -7.473951,-0.29387 -13.855701,-0.54125 -14.181668,-0.54971 -0.325966,-0.008 -0.535516,-0.0282 -0.465666,-0.0438 0.393426,-0.0881 29.668404,-0.98826 29.867237,-0.91833 0.743207,0.26137 0.815926,1.57234 0.107535,1.93866 -0.330324,0.17082 0.357398,0.18996 -15.327438,-0.42677 z"
         id="path997"
         sodipodi:nodetypes="ssssss" />
      <path
         style="fill:#d200e1;fill-opacity:1;stroke-width:0.999998"
         d="m 74.543089,220.31753 c -8.894234,-0.29371 -16.457084,-0.54355 -16.806334,-0.55521 -1.024497,-0.0342 -0.720134,-0.0437 17.679951,-0.55197 11.292089,-0.31192 17.547636,-0.45462 17.692715,-0.4036 0.705734,0.2482 0.813586,1.48272 0.16898,1.93422 -0.226984,0.15899 -0.290543,0.18141 -11.80747,-0.19529 -1.958884,-0.0641 -4.249111,-0.1397 -6.927842,-0.22815 z"
         id="path995"
         sodipodi:nodetypes="sssssss" />
      <path
         id="path993"
         style="fill:#e10011;fill-opacity:1;stroke-width:0.999998"
         d="m 103.19901,162.72707 c -0.0801,0.0146 -0.0811,0.17074 -0.0811,0.77825 v 0.81803 l 0.69867,0.33228 c 0.86041,0.40882 1.89393,0.70991 3.04219,0.88625 1.24756,0.1916 3.66238,0.25228 5.40329,0.13591 3.67355,-0.24555 4.0442,-0.22544 4.77387,0.25787 0.42971,0.28462 0.85201,1.01957 0.94826,1.65003 l 0.0532,0.34881 -0.6041,0.48214 c -0.63703,0.50828 -1.16796,1.11956 -1.47071,1.69292 -0.16044,0.30385 -0.18781,0.52962 -0.23151,1.911 l -0.0496,1.56631 -0.82062,1.68052 c -0.45144,0.9243 -0.82062,1.69595 -0.82062,1.71462 0,0.0187 0.30207,0.0336 0.67127,0.0336 0.49737,0 0.70551,0.0348 0.80409,0.13333 0.17618,0.17619 0.16861,0.25265 -0.0775,0.78134 -0.28001,0.60147 -0.97991,1.31929 -2.17868,2.23449 -1.65536,1.2638 -2.26704,2.1213 -2.26704,3.17759 0,0.2983 -0.0399,0.61683 -0.0884,0.70745 -0.0485,0.0906 -0.46372,0.35272 -0.92242,0.58291 -0.4587,0.23019 -0.91419,0.52064 -1.01234,0.64544 -0.47814,0.60785 0.0754,1.66323 1.36684,2.60604 0.31751,0.23178 0.40908,0.49486 0.21394,0.61547 -0.11621,0.0718 -8.44286,0.0587 -15.242481,-0.0243 l -4.465878,-0.0548 v 0.99787 0.99787 l 11.213269,-0.063 11.21275,-0.0625 0.21704,0.21652 c 0.24421,0.2442 0.28187,0.5728 0.0847,0.73639 -0.44423,0.36869 -1.81201,2.73213 -2.3797,4.11138 -0.10498,0.25507 -0.2426,0.44766 -0.33589,0.47077 -0.0869,0.0215 -0.82478,-0.10499 -1.6397,-0.28163 -2.76781,-0.59997 -4.22139,-0.7036 -6.34948,-0.45269 -1.0866,0.12812 -2.60377,0.22983 -5.715412,0.38344 -0.9779,0.0483 -2.257801,0.15979 -2.843755,0.24805 -1.594363,0.24012 -2.233853,0.13335 -4.248835,-0.71107 -1.844821,-0.77311 -3.241799,-0.93725 -6.92826,-0.81339 -1.415558,0.0476 -2.821673,0.10618 -3.124356,0.13023 -0.302684,0.024 -1.588715,0.0834 -2.858225,0.13229 -1.544479,0.0594 -2.418985,0.12795 -2.642217,0.2067 -0.526616,0.18581 -1.148506,0.62029 -2.510956,1.75494 -2.506485,2.08739 -3.638373,2.79283 -5.478736,3.41374 -0.933711,0.31502 -0.868542,0.34544 0.433566,0.20361 2.911154,-0.31711 5.336844,-1.26258 7.606254,-2.9652 0.581586,-0.43633 1.400943,-0.32873 1.768367,0.23203 0.212934,0.32498 0.211293,0.8886 -0.0036,1.18701 -0.299167,0.41542 -1.877875,1.08566 -3.468523,1.47277 l -0.592728,0.14418 0.592728,-0.0393 c 1.755042,-0.11588 3.809936,-0.52621 5.195032,-1.03766 1.000808,-0.36956 2.43676,-1.1213 3.184819,-1.6676 0.350634,-0.25607 0.75878,-0.50049 0.907439,-0.54312 0.28843,-0.0827 0.772239,0.0117 1.003554,0.19637 0.416388,0.33232 0.540194,0.9381 0.290422,1.4211 -0.236937,0.45818 -1.685999,1.02632 -3.766177,1.47691 l -0.973068,0.21084 0.676963,-0.0486 c 3.421806,-0.2446 6.918256,-1.33106 9.080582,-2.82154 0.898839,-0.61956 1.553016,-0.82504 2.179195,-0.68471 0.964269,0.2161 1.568937,0.77798 1.566312,1.45624 -5.29e-4,0.15366 -0.09398,0.56995 -0.207224,0.92449 -0.315542,0.98791 -0.419724,1.96816 -0.309023,2.9068 0.163978,1.39041 0.51969,2.32419 1.425752,3.74293 0.322432,0.50487 0.847056,1.39454 1.165302,1.97662 1.258679,2.30216 2.466708,4.40032 2.987932,5.18883 0.822134,1.24373 1.080884,2.19401 1.791623,6.58771 0.33537,2.07322 0.622692,3.14846 0.895035,3.3476 0.07424,0.0543 0.447298,0.12423 0.828888,0.15555 0.38159,0.0313 2.67486,0.27995 5.09633,0.5519 2.42146,0.27195 4.66959,0.51916 4.99556,0.54984 1.11493,0.10493 1.85912,0.40928 3.20187,1.30948 0.51759,0.34701 1.01876,0.75606 1.15238,0.94051 0.41104,0.56742 1.12126,2.23648 1.05834,2.48719 -0.0764,0.3045 -0.77738,1.06383 -1.11053,1.20303 -0.47654,0.19911 -0.70423,0.13759 -1.77353,-0.47801 -0.56621,-0.32597 -1.06414,-0.59273 -1.1064,-0.59273 -0.0879,0 -0.88143,0.6396 -2.07842,1.67483 -0.9964,0.86177 -1.02996,0.98005 -0.38086,1.33739 0.39125,0.21538 0.5257,0.24362 1.1219,0.23668 0.40536,-0.005 0.94908,-0.0816 1.35444,-0.1912 1.30878,-0.35393 2.47772,-0.32298 4.31808,0.1142 h 5.3e-4 c 0.46567,0.11062 0.8999,0.20445 0.96532,0.20826 0.17167,0.01 0.6726,-0.54433 1.35392,-1.49862 0.32666,-0.45753 0.6701,-0.90117 0.76326,-0.98547 0.0932,-0.0843 1.01849,-0.41733 2.05672,-0.74001 1.03823,-0.32267 2.12205,-0.69544 2.40812,-0.82837 0.65532,-0.3045 1.54469,-0.90192 2.96106,-1.98903 0.61078,-0.4688 1.22646,-0.91515 1.36839,-0.99218 0.40103,-0.21766 0.52008,-0.4819 0.70332,-1.56425 0.2852,-1.68448 0.75652,-2.44438 1.94458,-3.13469 0.59258,-0.34432 0.65997,-0.41212 0.83871,-0.84336 0.10692,-0.25795 0.43146,-0.79912 0.72141,-1.20303 0.28994,-0.40391 0.60475,-0.88705 0.69969,-1.07332 0.18293,-0.3589 0.65531,-1.829 0.95447,-2.97139 0.0987,-0.37711 0.249,-0.8 0.33383,-0.93948 0.0873,-0.1436 0.58486,-0.53661 1.14721,-0.9064 1.05647,-0.69471 1.83946,-1.37392 2.04691,-1.77509 0.0924,-0.17875 0.13484,-0.61306 0.1571,-1.60972 0.0168,-0.75076 0.0675,-1.73531 0.11265,-2.18798 0.12107,-1.21341 0.33052,-1.5425 1.77302,-2.78484 0.35268,-0.30373 0.35483,-0.30839 0.35398,-0.88884 -2.6e-4,-0.32099 -0.0767,-1.09188 -0.1695,-1.71307 -0.0928,-0.6212 -0.16846,-1.27939 -0.16846,-1.46296 0,-0.65679 0.37684,-1.23702 1.0666,-1.64125 0.19389,-0.11363 0.37757,-0.27197 0.40824,-0.35191 0.0303,-0.0799 0.0305,-0.54801 0,-1.03973 -0.0518,-0.83654 -0.0435,-0.90915 0.12971,-1.12707 0.10179,-0.12809 0.34449,-0.32569 0.53899,-0.43924 0.36056,-0.21052 1.71752,-0.63976 2.02209,-0.63976 0.0925,0 0.47872,0.15293 0.85835,0.34003 1.18458,0.58385 2.49116,0.72802 4.20388,0.46406 1.14209,-0.17602 2.29106,-0.16204 3.07009,0.0372 0.7485,0.19144 1.08716,0.3545 2.17558,1.04645 0.99106,0.63006 1.69843,0.92946 2.0159,0.85318 0.37824,-0.0909 0.84619,-0.35506 0.98805,-0.55759 0.33423,-0.47718 0.0527,-0.94943 -0.73897,-1.2392 -0.92587,-0.33889 -2.09186,-1.2953 -2.09186,-1.71617 0,-0.32692 0.19996,-0.36627 1.51619,-0.29921 1.36444,0.0695 2.07828,0.22568 2.95795,0.6475 1.15354,0.55315 1.33662,0.44992 1.26091,-0.71313 -0.0512,-0.78607 -0.30381,-1.53577 -0.63821,-1.89343 -0.23088,-0.24694 -0.69226,-0.42309 -2.70474,-1.03249 -0.79696,-0.24133 -0.86817,-0.27988 -0.86817,-0.47284 0,-0.14765 0.0649,-0.23447 0.21756,-0.29249 6.7429,-0.13779 5.76712,-0.11409 6.78865,-0.13125 v -0.46351 l -0.0182,-0.5362 c -3.80736,-0.0607 0.45468,-0.0124 -11.7039,-0.0948 l -0.54208,-0.37931 c -0.29795,-0.20865 -1.10153,-0.78035 -1.78594,-1.2702 -0.6844,-0.48985 -1.36999,-0.96706 -1.52342,-1.06092 -0.15343,-0.0939 -0.45784,-0.43467 -0.67645,-0.75706 -0.55195,-0.81401 -0.58719,-0.82711 -1.91512,-0.709 -1.43289,0.12744 -1.43819,0.12462 -2.34508,-1.29863 -0.37261,-0.58476 -0.77293,-1.17783 -0.88935,-1.31775 -0.38196,-0.45908 -0.54033,-0.50669 -1.86242,-0.56172 -0.67522,-0.0281 -1.60545,-0.1088 -2.06706,-0.17932 -0.4616,-0.0705 -0.88058,-0.1268 -0.93121,-0.12506 -0.14578,0.005 0.52841,0.55854 1.18598,0.97359 0.67974,0.42903 1.43566,0.75461 1.94613,0.83871 0.50966,0.084 0.85991,0.33506 1.06971,0.76687 0.16861,0.34706 0.17327,0.39465 0.0532,0.5147 -0.34414,0.34415 -1.54223,0.3855 -2.27273,0.078 -0.52961,-0.22291 -1.0903,-0.26925 -1.60869,-0.13281 -0.16298,0.0429 -0.51777,0.1219 -0.78806,0.1757 -0.42087,0.0838 -0.47626,0.11565 -0.38654,0.22376 0.17381,0.20942 0.68752,0.43332 1.1343,0.49403 0.65217,0.0886 0.97946,0.21051 1.41593,0.52762 0.42078,0.3057 0.51282,0.55407 0.25425,0.68678 -0.0815,0.0418 -0.66275,0.0988 -1.29139,0.1266 l -1.14309,0.0501 -1.01182,-0.33228 c -0.5566,-0.18273 -1.02414,-0.31945 -1.03921,-0.30437 -0.0151,0.0151 0.23902,0.34291 0.56482,0.72863 0.64795,0.76714 0.83378,1.15535 0.68574,1.43196 -0.16234,0.30334 -0.69049,0.38387 -2.50113,0.38085 -1.87988,-0.003 -3.4008,-0.12936 -4.61471,-0.3824 -1.0344,-0.21562 -2.2857,-0.38928 -3.30161,-0.45837 -0.44238,-0.0301 -0.91862,-0.0908 -1.05832,-0.13488 -0.14678,-0.0463 -0.79543,-0.60622 -1.53634,-1.32653 l -1.28209,-1.24644 -0.14263,-0.9741 c -0.0782,-0.53552 -0.23634,-1.48802 -0.35192,-2.11667 -0.11558,-0.62865 -0.2428,-1.40149 -0.28267,-1.71772 -0.0399,-0.31623 -0.11677,-0.62862 -0.17104,-0.69401 -0.0543,-0.0654 -0.28528,-0.18063 -0.51315,-0.25632 -0.45197,-0.15012 -0.77627,-0.47062 -0.91829,-0.90692 -0.0496,-0.15253 -0.1469,-0.68344 -0.21601,-1.18029 -0.11206,-0.80574 -0.11191,-0.95243 0.004,-1.35496 0.0712,-0.24821 0.1515,-0.67534 0.17777,-0.94929 l 0.0475,-0.49816 -0.64595,-0.61547 c -0.45322,-0.43169 -0.64596,-0.67549 -0.64596,-0.81752 0,-0.19788 0.35362,-0.59016 1.00149,-1.11156 l 0.28164,-0.22686 h 2.61172 2.61173 l -1.03094,-1.05265 c -0.94483,-0.96466 -1.09776,-1.0849 -1.83504,-1.44281 -0.44238,-0.21475 -1.05925,-0.46781 -1.37097,-0.56275 -0.31174,-0.095 -0.60632,-0.22071 -0.65475,-0.27905 -0.0484,-0.0583 -0.1842,-0.43762 -0.30178,-0.84336 -0.55726,-1.92293 -1.39356,-2.7902 -2.91353,-3.02204 -0.65729,-0.10026 -0.79214,-0.0926 -3.31039,0.18862 -1.96818,0.21982 -3.91148,0.18662 -4.92735,-0.0842 -0.80702,-0.21516 -1.5733,-0.5881 -2.19263,-1.0666 -0.47048,-0.36349 -0.47879,-0.36603 -1.31206,-0.40979 -0.46132,-0.0242 -0.92463,-0.0714 -1.0294,-0.1049 -0.0472,-0.0151 -0.0828,-0.0261 -0.10955,-0.0212 z m 28.08045,27.40763 c 0.96367,5.3e-4 1.89315,0.0359 1.96319,0.10593 0.16835,0.16836 0.11792,0.56732 -0.0992,0.78445 -0.26209,0.2621 -0.7184,0.38258 -1.45056,0.38396 -0.89413,0.002 -1.92381,0.14106 -2.27169,0.30696 -0.17068,0.0814 -0.31063,0.16955 -0.31058,0.19585 5e-5,0.0263 0.28553,0.17557 0.63407,0.33228 0.84258,0.37883 1.39785,0.73884 1.39785,0.90589 0,0.0749 -0.50746,0.65903 -1.1281,1.29811 -0.62062,0.63908 -1.2842,1.37251 -1.47433,1.62987 -0.42515,0.57551 -1.02062,1.10853 -1.49551,1.33842 -0.38658,0.18715 -0.92946,0.21377 -1.38493,0.0677 -0.36175,-0.11602 -0.83838,-0.64277 -1.28829,-1.42317 -0.46945,-0.81429 -0.96981,-1.48584 -1.20923,-1.62264 -0.11678,-0.0667 -0.63959,-0.12431 -1.36064,-0.15038 -1.01287,-0.0366 -1.18657,-0.0637 -1.28571,-0.19947 -0.0815,-0.11152 -0.092,-0.21724 -0.0357,-0.36535 0.10918,-0.28717 0.0993,-0.9319 -0.0176,-1.15549 -0.0532,-0.10171 -0.24579,-0.34873 -0.42839,-0.5488 -0.51967,-0.56936 -0.32156,-0.94434 0.50022,-0.94723 0.19566,-7.9e-4 0.84321,-0.15992 1.43919,-0.35398 l 1.08366,-0.35295 2.87837,-0.0129 c 1.94951,-0.009 2.97418,-0.0457 3.17449,-0.11317 0.20758,-0.0699 1.2057,-0.10434 2.16937,-0.10387 z m -24.00163,20.76824 c 0.40122,-0.003 0.71452,0.20205 1.20354,0.64492 0.96754,0.8762 2.72618,1.72875 6.36292,3.08353 4.01346,1.49513 4.39976,1.65247 4.62194,1.88878 0.18934,0.20137 0.20805,0.30387 0.2558,1.38596 0.0395,0.89649 0.0885,1.24423 0.21136,1.495 0.35038,0.71515 1.09171,0.90915 2.56883,0.67231 0.75016,-0.12028 0.99619,-0.12809 1.44901,-0.0465 1.19639,0.21554 1.942,0.58311 1.942,0.95756 0,0.43129 -0.42466,1.48194 -1.32395,3.27371 -1.07299,2.13783 -1.01355,2.06354 -2.23346,2.79672 -0.82234,0.49425 -1.13806,0.52923 -1.85053,0.20568 -0.487,-0.22116 -1.12678,-0.26779 -1.7353,-0.12661 -0.18033,0.0418 -0.39697,0.0504 -0.4811,0.0191 -0.0841,-0.0313 -1.06178,-1.14299 -2.17248,-2.47014 l -2.01951,-2.41277 -0.92863,-0.49092 c -0.51077,-0.27009 -1.08084,-0.5922 -1.26711,-0.71572 -0.46743,-0.30998 -0.99226,-0.3287 -3.10161,-0.11111 -1.8356,0.18935 -2.16008,0.17938 -3.01119,-0.092 -0.86489,-0.27576 -1.21078,-0.66455 -1.21078,-1.35909 0,-0.62788 0.59285,-7.29187 0.67645,-7.60315 0.0726,-0.2704 0.14465,-0.32497 0.8232,-0.62477 0.54307,-0.23995 0.90854,-0.36817 1.2206,-0.37052 z m 19.42517,4.00544 c 0.40674,-0.0167 0.73081,0.16844 0.92242,0.53898 0.11468,0.22177 0.11009,0.33769 -0.0481,1.20355 -0.28365,1.55289 -0.25792,1.53087 -2.25051,1.93476 -0.68944,0.13975 -1.4064,0.25329 -1.59266,0.2527 -0.40995,-0.001 -0.94304,-0.23471 -1.21802,-0.5333 -0.18139,-0.19699 -0.19686,-0.26978 -0.14676,-0.69608 0.0674,-0.57343 0.2252,-0.90066 0.53847,-1.11828 0.27148,-0.18858 2.7441,-1.28984 3.36259,-1.49758 0.15208,-0.0511 0.29695,-0.0792 0.43253,-0.0847 z"
         sodipodi:nodetypes="ssccssscccscccsssssssscsscccccccsssssssssssssssssccccssscscccsscsssssssssssssssssssscccsssssssssssssssssscssscssssssssssssssssssccccccsssssssssssssssssssscccssssssssccssssscscccscccccssscsssssssssscsssssssssssssssccccssssssssssssssssscccsssssssssssssssssscs" />
      <text
         xml:space="preserve"
         id="text1035"
         style="font-style:normal;font-weight:normal;font-size:10.5833px;line-height:1.25;font-family:sans-serif;white-space:pre;shape-inside:url(#rect1037-6);fill:#000000;fill-opacity:1;stroke:none"
         transform="translate(0,0.74314924)" />
      <text
         xml:space="preserve"
         id="text1041"
         style="font-style:normal;font-weight:normal;font-size:10.5833px;line-height:1.25;font-family:sans-serif;white-space:pre;shape-inside:url(#rect1043-8);fill:#000000;fill-opacity:1;stroke:none"
         transform="translate(0,0.74314924)" />
      <text
         xml:space="preserve"
         id="text1047"
         style="font-style:normal;font-weight:normal;font-size:10.5833px;line-height:1.25;font-family:sans-serif;white-space:pre;shape-inside:url(#rect1049-2);fill:#000000;fill-opacity:1;stroke:none"
         transform="translate(0,0.74314924)" />
    </g>
  </g>
</svg>
