<?xml version="1.0" encoding="UTF-8" standalone="no"?>
<svg
   xmlns:dc="http://purl.org/dc/elements/1.1/"
   xmlns:cc="http://creativecommons.org/ns#"
   xmlns:rdf="http://www.w3.org/1999/02/22-rdf-syntax-ns#"
   xmlns:svg="http://www.w3.org/2000/svg"
   xmlns="http://www.w3.org/2000/svg"
   xmlns:sodipodi="http://sodipodi.sourceforge.net/DTD/sodipodi-0.dtd"
   xmlns:inkscape="http://www.inkscape.org/namespaces/inkscape"
   width="140.67496mm"
   height="69.485619mm"
   viewBox="0 0 140.67496 69.485619"
   version="1.1"
   id="svg8"
   inkscape:version="1.0.2 (e86c870879, 2021-01-15, custom)"
   sodipodi:docname="Wiki Logo.svg">
  <defs
     id="defs2">
    <rect
       x="115.40235"
       y="158.15244"
       width="55.917466"
       height="23.208463"
       id="rect1049" />
    <rect
       x="116.08096"
       y="158.15244"
       width="48.181311"
       height="22.665575"
       id="rect1043" />
    <rect
       x="165.21232"
       y="167.51726"
       width="3.9359381"
       height="25.515737"
       id="rect1037" />
  </defs>
  <sodipodi:namedview
     id="base"
     pagecolor="#ffffff"
     bordercolor="#666666"
     borderopacity="1.0"
     inkscape:pageopacity="0.0"
     inkscape:pageshadow="2"
     inkscape:zoom="2.0244294"
     inkscape:cx="259.22241"
     inkscape:cy="91.929822"
     inkscape:document-units="mm"
     inkscape:current-layer="g921"
     inkscape:document-rotation="0"
     showgrid="false"
     inkscape:window-width="1600"
     inkscape:window-height="1177"
     inkscape:window-x="1912"
     inkscape:window-y="-8"
     inkscape:window-maximized="1" />
  <metadata
     id="metadata5">
    <rdf:RDF>
      <cc:Work
         rdf:about="">
        <dc:format>image/svg+xml</dc:format>
        <dc:type
           rdf:resource="http://purl.org/dc/dcmitype/StillImage" />
        <dc:title />
      </cc:Work>
    </rdf:RDF>
  </metadata>
  <g
     inkscape:label="Layer 1"
     inkscape:groupmode="layer"
     id="layer1"
     transform="translate(-33.755869,-162.55371)">
    <g
       id="g921"
       transform="translate(2.9083291,0.1938884)">
      <path
         style="fill:#000000;fill-opacity:1;stroke-width:11.811"
         d="m 753.5,306.49244 c -75.35,-3.49839 -139.475,-6.46237 -142.5,-6.58661 -3.025,-0.12425 -4.15,-0.36821 -2.5,-0.54213 1.65,-0.17393 68.89106,-2.86194 149.42457,-5.97336 140.19796,-5.41656 146.56163,-5.58331 149.64765,-3.92138 7.26973,3.91501 8.51401,13.90601 2.48305,19.93766 -2.91623,2.91657 -3.5635,3.10347 -11.32415,3.26996 C 894.20401,312.7737 828.85,309.99084 753.5,306.49244 Z"
         transform="matrix(0.08466667,0,0,0.08466666,10.486513,140.58157)"
         id="path1023" />
      <path
         style="fill:#8a4900;fill-opacity:1;stroke-width:11.811"
         d="m 860,369.44231 c -92.675,-3.46475 -171.2,-6.38784 -174.5,-6.49577 -6.14306,-0.20091 343.9135,-11.76069 359.7647,-11.88037 8.5341,-0.0644 8.858,0.0193 12.3117,3.18443 6.2491,5.72688 5.3534,16.66584 -1.6616,20.29345 -3.9777,2.05693 -5.483,2.01773 -195.9148,-5.10174 z"
         transform="matrix(0.08466667,0,0,0.08466666,10.486513,140.58157)"
         id="path1021" />
      <path
         style="fill:#e10011;fill-opacity:1;stroke-width:11.811"
         d="m 1180.75,379.68698 c -3.221,-2.64956 -3.5335,-5.19731 -0.8157,-6.6518 1.1825,-0.63287 11.4676,-1.03518 26.4648,-1.03518 23.7044,0 24.5675,0.069 25.6274,2.04945 0.6032,1.1272 0.9566,3.2647 0.7852,4.75 L 1232.5,381.5 1208,381.72454 c -24.1304,0.22115 -24.5415,0.19042 -27.25,-2.03756 z"
         transform="matrix(0.08466667,0,0,0.08466666,10.486513,140.58157)"
         id="path1019" />
      <path
         style="fill:#e10011;fill-opacity:1;stroke-width:11.811"
         d="m 1190,397 v -5 h 19.5 c 21.6905,0 20.8938,-0.2966 18.4022,6.85078 L 1226.8043,402 H 1208.4022 1190 Z"
         transform="matrix(0.08466667,0,0,0.08466666,10.486513,140.58157)"
         id="path1017" />
      <path
         style="fill:#e10011;fill-opacity:1;stroke-width:11.811"
         d="m 1188,417 v -5 h 18 c 19.6666,0 18.7745,-0.32899 16.9474,6.25 L 1221.906,422 H 1204.953 1188 Z"
         transform="matrix(0.08466667,0,0,0.08466666,10.486513,140.58157)"
         id="path1015" />
      <path
         style="fill:#e10011;fill-opacity:1;stroke-width:11.811"
         d="m 758.5,432.43818 c -123.2,-3.47127 -225.35,-6.39675 -227,-6.50108 -3.55385,-0.2247 463.81119,-11.77488 480.35,-11.87108 l 11.35,-0.066 c 1.8295,1.74188 3.7063,3.71776 5.3158,5.50947 1.3073,1.73316 1.4842,3.21272 1.4842,6.99053 0,5.14902 -0.3287,6.02865 -3.4,9.1 l -3.4,3.4 -20.35,-0.12521 c -11.1925,-0.0689 -121.15,-2.96536 -244.35,-6.43663 z"
         transform="matrix(0.08466667,0,0,0.08466666,10.486513,140.58157)"
         id="path1013" />
      <path
         style="fill:#e10011;fill-opacity:1;stroke-width:11.811"
         d="M 1196.2699,441.29688 C 1193.6197,440.78497 1190,436.49451 1190,433.86514 1190,432.12996 1191.0192,432 1204.6278,432 h 14.6278 l -0.6643,4.15462 c -0.3654,2.28504 -0.8995,4.53504 -1.1869,5 -0.5223,0.8452 -16.9237,0.9556 -21.1345,0.14226 z"
         transform="matrix(0.08466667,0,0,0.08466666,10.486513,140.58157)"
         id="path1011" />
      <path
         style="fill:#f59300;fill-opacity:1;stroke-width:11.811"
         d="m 772.77835,496.07492 c -114.24691,-3.67669 -207.92996,-6.8932 -208.18455,-7.14779 -0.96503,-0.96503 419.09718,-11.9951 421.50011,-11.06782 6.42792,2.48049 9.46524,10.47336 6.59255,17.34867 -1.69271,4.05122 -4.68677,6.35671 -9.18646,7.07377 -1.65,0.26294 -96.47474,-2.53013 -210.72165,-6.20683 z"
         transform="matrix(0.08466667,0,0,0.08466666,10.486513,140.58157)"
         id="path1009" />
      <path
         style="fill:#ebe700;fill-opacity:1;stroke-width:11.811"
         d="m 602.27394,559.15462 c -91.97433,-3.63138 -166.89933,-6.87594 -166.5,-7.21014 0.39933,-0.3342 72.05106,-2.95706 159.22606,-5.82857 87.175,-2.87151 163,-5.46985 168.5,-5.77409 9.37365,-0.51851 10.21922,-0.40357 13.5,1.83511 5.0053,3.41543 6.96635,9.32817 4.96917,14.98248 -1.63079,4.61697 -4.92909,7.4531 -9.46917,8.1423 -1.65,0.25047 -78.25173,-2.51572 -170.22606,-6.14709 z"
         transform="matrix(0.08466667,0,0,0.08466666,10.486513,140.58157)"
         id="path1007" />
      <path
         style="fill:#eea5b4;fill-opacity:1;stroke-width:11.811"
         d="m 424,621.5 c -65.725,-3.4387 -119.275,-6.33903 -119,-6.44518 0.275,-0.10615 58.55,-2.79251 129.5,-5.96968 98.90708,-4.42911 129.80795,-5.52107 132.46344,-4.68091 8.9794,2.84092 10.72689,16.4967 2.81977,22.03507 -3.339,2.33872 -12.80787,2.01791 -145.78321,-4.9393 z"
         transform="matrix(0.08466667,0,0,0.08466666,10.486513,140.58157)"
         id="path1005" />
      <path
         style="fill:#d2d2d2;fill-opacity:1;stroke-width:11.811"
         d="m 399,684.6543 c -49.19376,-4.46704 -66.27958,-6.32806 -63,-6.86208 2.475,-0.40301 34.63046,-3.04839 71.45657,-5.87864 63.68907,-4.89477 67.10852,-5.06406 70.07022,-3.46908 6.20003,3.33893 8.30849,11.25142 4.52687,16.98807 -2.63408,3.99585 -5.71998,5.51004 -11.05366,5.42381 -2.475,-0.04 -34.875,-2.83095 -72,-6.20208 z"
         transform="matrix(0.08466667,0,0,0.08466666,10.486513,140.58157)"
         id="path1003" />
      <path
         style="fill:#59caf3;fill-opacity:1;stroke-width:11.811"
         d="m 369,748 c -71.775,-3.71112 -129.6,-6.80676 -128.5,-6.87919 10.09084,-0.66449 254.78017,-11.11123 260.35,-11.11536 7.02861,-0.005 7.49867,0.14322 10.75,3.39455 2.98387,2.98387 3.4,4.0285 3.4,8.53518 0,3.15419 -0.65751,6.13867 -1.7044,7.73644 -1.97128,3.00855 -7.00084,5.38422 -11.01348,5.20213 C 500.75195,754.80431 440.775,751.71112 369,748 Z"
         transform="matrix(0.08466667,0,0,0.08466666,10.486513,140.58157)"
         id="path1001" />
      <path
         style="fill:#00af06;fill-opacity:1;stroke-width:11.811"
         d="m 575,811.43965 c -111.375,-3.46618 -207.675,-6.41419 -214,-6.55114 -6.325,-0.13695 -9.475,-0.39639 -7,-0.57652 C 361.66572,803.75406 775.06414,793 788.8457,793 h 13.00045 l 2.93991,2.9399 c 5.36719,5.3672 4.95038,14.57975 -0.88167,19.4871 -2.92654,2.46252 -3.55907,2.56746 -14.73112,2.44389 C 782.75297,817.79988 686.375,814.90582 575,811.43965 Z"
         transform="matrix(0.08466667,0,0,0.08466666,10.486513,140.58157)"
         id="path999" />
      <path
         style="fill:#001af5;fill-opacity:1;stroke-width:11.811"
         d="m 661,874.44254 c -88.275,-3.47099 -163.65,-6.39271 -167.5,-6.49272 -3.85,-0.1 -6.325,-0.33304 -5.5,-0.51786 4.64677,-1.04098 350.41421,-11.67238 352.76263,-10.84648 8.77804,3.08707 9.63692,18.57095 1.2701,22.89759 -3.90146,2.01753 4.22123,2.24369 -181.03273,-5.04053 z"
         transform="matrix(0.08466667,0,0,0.08466666,10.486513,140.58157)"
         id="path997" />
      <path
         style="fill:#d200e1;fill-opacity:1;stroke-width:11.811"
         d="M 647.5,937.43798 C 542.45,933.96901 453.125,931.0181 449,930.8804 c -12.10035,-0.40393 -8.50551,-0.51617 208.81832,-6.5193 133.37112,-3.68411 207.25553,-5.36953 208.96906,-4.76691 8.33544,2.93141 9.60929,17.51245 1.99583,22.84511 -2.68092,1.87778 -3.43161,2.14258 -139.4583,-2.30665 -23.13643,-0.75676 -50.18635,-1.6499 -81.82491,-2.69467 z"
         transform="matrix(0.08466667,0,0,0.08466666,10.486513,140.58157)"
         id="path995" />
      <path
         id="path993"
         style="fill:#e10011;fill-opacity:1;stroke-width:3.77952"
         d="m 238.55078,0.00390625 c -0.30275,0.05538825 -0.30664,0.64534089 -0.30664,2.94140625 v 3.0917969 l 2.64063,1.2558594 c 3.25193,1.5451324 7.15817,2.683104 11.49804,3.3496092 4.71517,0.724147 13.84207,0.953486 20.42188,0.513672 13.88429,-0.928074 15.28517,-0.852075 18.04297,0.974609 1.62409,1.075741 3.2202,3.853503 3.58398,6.236329 l 0.20117,1.318359 -2.2832,1.822265 c -2.40768,1.92104 -4.41434,4.231376 -5.55859,6.398438 -0.60637,1.148406 -0.70985,2.001697 -0.875,7.222656 l -0.1875,5.919922 -3.10157,6.351563 c -1.7062,3.493411 -3.10156,6.40988 -3.10156,6.480468 0,0.07059 1.14169,0.126954 2.53711,0.126953 1.87981,0 2.66649,0.131328 3.03906,0.503907 0.66589,0.665907 0.63727,0.954923 -0.29297,2.953125 -1.0583,2.273244 -3.70362,4.986269 -8.23437,8.445312 -6.25651,4.77655 -8.56836,8.017501 -8.56836,12.009766 0,1.127459 -0.15071,2.331342 -0.33398,2.673828 -0.1833,0.342483 -1.75264,1.333119 -3.48633,2.203125 -1.73367,0.870006 -3.45519,1.967776 -3.82617,2.439453 -1.80714,2.297382 0.28479,6.28624 5.16601,9.84961 1.20003,0.876033 1.54613,1.870338 0.80859,2.326171 -0.4392,0.271431 -31.91001,0.221842 -57.60937,-0.0918 L 191.8457,97.113281 v 3.771489 3.77148 l 42.38086,-0.23828 42.37891,-0.23633 0.82031,0.81836 c 0.92298,0.92296 1.06531,2.16491 0.32031,2.7832 -1.679,1.39347 -6.84854,10.32614 -8.99414,15.53907 -0.3968,0.96404 -0.91692,1.69192 -1.26953,1.77929 -0.32851,0.0814 -3.11726,-0.39681 -6.19726,-1.06445 -10.46103,-2.26758 -15.95486,-2.65927 -23.99805,-1.71094 -4.10683,0.48422 -9.84104,0.86864 -21.60156,1.44922 -3.696,0.18246 -8.53342,0.60395 -10.74805,0.9375 -6.02594,0.90757 -8.44291,0.50402 -16.05859,-2.6875 -6.97255,-2.922 -12.25247,-3.54236 -26.18555,-3.07422 -5.35014,0.17976 -10.66459,0.40129 -11.80859,0.49219 -1.144,0.0909 -6.00459,0.31535 -10.80274,0.5 -5.8374,0.22464 -9.14262,0.48358 -9.98633,0.78125 -1.99036,0.70224 -4.34081,2.34439 -9.49023,6.63281 -9.47333,7.88935 -13.75133,10.55561 -20.707032,12.90235 -3.528986,1.19062 -3.282678,1.3056 1.638672,0.76953 11.00279,-1.19852 20.17075,-4.77193 28.74805,-11.20703 2.19812,-1.64914 5.2949,-1.24246 6.68359,0.87695 0.80479,1.22829 0.79859,3.35847 -0.0137,4.48633 -1.13071,1.57009 -7.09748,4.10329 -13.10938,5.5664 l -2.24023,0.54493 2.24023,-0.14844 c 6.63323,-0.43798 14.39976,-1.98882 19.63477,-3.92188 3.78258,-1.39674 9.2098,-4.23797 12.03711,-6.30273 1.32523,-0.96781 2.86783,-1.8916 3.42969,-2.05274 1.09013,-0.31264 2.9187,0.0444 3.79296,0.74219 1.57375,1.25601 2.04168,3.54557 1.09766,5.3711 -0.89551,1.7317 -6.37228,3.879 -14.23437,5.58203 l -3.67774,0.79687 2.5586,-0.18359 c 12.93281,-0.92448 26.14774,-5.03076 34.32031,-10.66407 3.39719,-2.34165 5.86967,-3.11827 8.23633,-2.58789 3.64448,0.81675 5.92984,2.94041 5.91992,5.50391 -0.002,0.58074 -0.3552,2.15413 -0.78321,3.49414 -1.1926,3.73381 -1.58636,7.43871 -1.16796,10.98633 0.61976,5.25509 1.96418,8.78431 5.38867,14.14648 1.21864,1.9082 3.20147,5.27071 4.40429,7.47071 4.75721,8.70106 9.32299,16.63114 11.29297,19.61132 3.10728,4.70072 4.08523,8.29231 6.77149,24.89844 1.26754,7.83579 2.35348,11.89968 3.38281,12.65235 0.2806,0.20517 1.69058,0.46952 3.13281,0.58789 1.44223,0.11837 10.10972,1.05809 19.26172,2.08593 9.152,1.02785 17.64886,1.96218 18.88086,2.07813 4.21392,0.39658 7.02659,1.54688 12.10156,4.94922 1.95626,1.31152 3.85045,2.85753 4.35547,3.55469 1.55351,2.14457 4.23783,8.45283 4,9.40039 -0.28883,1.15088 -2.9381,4.02076 -4.19726,4.54687 -1.80109,0.75255 -2.66166,0.52005 -6.70313,-1.80664 -2.13997,-1.232 -4.02193,-2.24023 -4.18164,-2.24023 -0.33242,0 -3.3314,2.41737 -7.85547,6.33007 -3.76592,3.25706 -3.89273,3.70413 -1.43945,5.05469 1.47875,0.81405 1.98689,0.92077 4.24023,0.89453 1.53207,-0.0178 3.58708,-0.30835 5.11914,-0.72265 4.9466,-1.33767 9.36464,-1.22068 16.32032,0.43164 h 0.002 c 1.76,0.41808 3.4012,0.77271 3.64844,0.78711 0.64883,0.0377 2.54211,-2.05728 5.11718,-5.66407 1.23463,-1.72924 2.53267,-3.40597 2.88477,-3.7246 0.3521,-0.31863 3.84941,-1.57733 7.77344,-2.79688 3.92403,-1.21955 8.02034,-2.62846 9.10156,-3.13086 2.4768,-1.15088 5.83819,-3.40884 11.19141,-7.51758 2.30844,-1.77184 4.63542,-3.45885 5.17187,-3.75 1.51571,-0.82265 1.96563,-1.82135 2.6582,-5.91211 1.07792,-6.36652 2.85928,-9.23859 7.34961,-11.84765 2.23968,-1.30135 2.49437,-1.55761 3.16993,-3.1875 0.40409,-0.97492 1.63072,-3.0203 2.72656,-4.54688 1.09587,-1.52658 2.28568,-3.35264 2.64453,-4.05664 0.69139,-1.35647 2.47673,-6.91275 3.60742,-11.23047 0.37322,-1.42529 0.94111,-3.0236 1.26172,-3.55078 0.33005,-0.54275 2.2105,-2.02812 4.33594,-3.42578 3.99293,-2.62566 6.95226,-5.19275 7.73633,-6.70898 0.34937,-0.67558 0.50962,-2.31708 0.59375,-6.08399 0.0634,-2.83751 0.25506,-6.55865 0.42578,-8.26953 0.4576,-4.58613 1.2492,-5.82993 6.70117,-10.52539 1.33296,-1.14794 1.34109,-1.16557 1.33789,-3.35938 -10e-4,-1.21318 -0.28978,-4.12678 -0.64063,-6.4746 -0.35084,-2.34785 -0.63671,-4.8355 -0.63671,-5.5293 0,-2.48234 1.42427,-4.67535 4.03125,-6.20313 0.73283,-0.42947 1.42703,-1.02792 1.54296,-1.33007 0.11456,-0.30218 0.1152,-2.0712 0,-3.92969 -0.19593,-3.16173 -0.16426,-3.43616 0.49024,-4.25977 0.3847,-0.48412 1.302,-1.23096 2.03711,-1.66015 1.36278,-0.79565 6.49144,-2.41797 7.64258,-2.41797 0.34953,0 1.80932,0.57799 3.24414,1.28515 4.47715,2.20667 9.41539,2.75156 15.88867,1.75391 4.31657,-0.66526 8.65913,-0.61243 11.60351,0.14062 2.82896,0.72353 4.10896,1.33985 8.22266,3.95508 3.74573,2.38131 6.41927,3.51292 7.61914,3.22461 1.42957,-0.3435 3.19822,-1.34195 3.73438,-2.10742 1.26323,-1.8035 0.19912,-3.5884 -2.79297,-4.68359 -3.49936,-1.28085 -7.90625,-4.89562 -7.90625,-6.48633 0,-1.23558 0.75575,-1.38431 5.73047,-1.13086 5.15696,0.26273 7.85495,0.85298 11.17968,2.44726 4.35981,2.09062 5.05177,1.70047 4.76563,-2.69531 -0.19341,-2.97097 -1.14827,-5.80447 -2.41211,-7.15625 -0.87264,-0.93332 -2.61642,-1.59908 -10.22266,-3.90234 -3.01212,-0.91211 -3.28125,-1.0578 -3.28125,-1.78711 0,-0.55806 0.24547,-0.88618 0.82227,-1.10547 0.48073,-0.18278 5.82772,-0.3125 12.90625,-0.3125 6.64739,0 27.22919,-0.0958 45.73828,-0.21289 l 33.6543,-0.21289 v -1.50977 -1.507809 l -20.88086,-0.205079 c -11.484,-0.11234 -36.44677,-0.308674 -55.47266,-0.4375 l -34.5918,-0.234374 -2.04882,-1.433594 c -1.12612,-0.788599 -4.16328,-2.94938 -6.75,-4.800782 -2.58672,-1.851399 -5.17791,-3.655026 -5.75782,-4.009765 -0.5799,-0.354742 -1.7304,-1.642829 -2.55664,-2.861328 -2.08611,-3.076573 -2.21933,-3.126062 -7.23828,-2.679688 -5.41565,0.481658 -5.43566,0.471019 -8.86328,-4.908203 -1.40829,-2.210131 -2.92133,-4.451621 -3.36133,-4.980469 -1.44361,-1.735119 -2.0422,-1.91505 -7.03906,-2.123047 -2.552,-0.106228 -6.06783,-0.411199 -7.8125,-0.677734 -1.74464,-0.266537 -3.32817,-0.479248 -3.51953,-0.472656 -0.55098,0.01903 1.99711,2.110996 4.48242,3.679687 2.56909,1.621549 5.42613,2.852073 7.35547,3.169922 1.92627,0.317341 3.25004,1.266374 4.04297,2.898438 0.63728,1.311715 0.6549,1.491568 0.20117,1.945312 -1.3007,1.300704 -5.82892,1.456986 -8.58984,0.294922 -2.00167,-0.842496 -4.12082,-1.017646 -6.08008,-0.501953 -0.616,0.162134 -1.95695,0.460721 -2.97852,0.664062 -1.59069,0.316637 -1.80002,0.437105 -1.46094,0.845704 0.65693,0.791513 2.59851,1.637744 4.28711,1.867187 2.4649,0.334928 3.70193,0.795648 5.35157,1.994141 1.59033,1.155411 1.93821,2.094148 0.96093,2.595703 -0.308,0.15807 -2.50487,0.37341 -4.88085,0.478515 l -4.32032,0.189454 -3.82422,-1.25586 c -2.10368,-0.690614 -3.87074,-1.20737 -3.92773,-1.15039 -0.057,0.05698 0.9034,1.296072 2.13477,2.753906 2.44894,2.899411 3.15128,4.366679 2.59179,5.412109 -0.61357,1.146477 -2.60976,1.450877 -9.45312,1.439453 -7.10506,-0.01186 -12.85341,-0.488944 -17.44141,-1.445312 -3.90957,-0.814947 -8.63887,-1.471283 -12.47852,-1.732422 -1.67198,-0.113715 -3.47199,-0.343209 -4,-0.509766 -0.5547,-0.174985 -3.00632,-2.291224 -5.80664,-5.013672 l -4.8457,-4.710937 -0.53906,-3.681641 c -0.29552,-2.023999 -0.89325,-5.624 -1.33008,-8 -0.4368,-2.375999 -0.91767,-5.296987 -1.06836,-6.492187 -0.15065,-1.1952 -0.44136,-2.375892 -0.64648,-2.623047 -0.20512,-0.247152 -1.07821,-0.682686 -1.93946,-0.96875 -1.70822,-0.567376 -2.93393,-1.778711 -3.4707,-3.427734 -0.18762,-0.576471 -0.55519,-2.583066 -0.81641,-4.460938 -0.42352,-3.045305 -0.42298,-3.599747 0.0137,-5.121094 0.26924,-0.938128 0.57258,-2.55246 0.67187,-3.58789 l 0.17969,-1.882813 -2.44141,-2.326172 c -1.71293,-1.631596 -2.4414,-2.553027 -2.4414,-3.089843 0,-0.747888 1.33651,-2.230526 3.78515,-4.201172 l 1.06446,-0.857422 h 9.87109 9.87109 l -3.89648,-3.978516 c -3.57101,-3.645974 -4.14899,-4.100427 -6.93555,-5.453125 -1.672,-0.811654 -4.00343,-1.768108 -5.18164,-2.126953 -1.17821,-0.358845 -2.2916,-0.834191 -2.47461,-1.054687 -0.18297,-0.220496 -0.69624,-1.653968 -1.14062,-3.1875 C 296.14193,9.820137 292.9811,6.5422844 287.23633,5.6660156 284.75207,5.2870877 284.2424,5.3158857 274.72461,6.3789062 c -7.43878,0.8308256 -14.78356,0.7053334 -18.62305,-0.3183593 -3.05011,-0.8132288 -5.94634,-2.2227606 -8.28711,-4.03125 -1.7782,-1.37384954 -1.80961,-1.38342336 -4.95898,-1.54882815 -1.74355,-0.0915712 -3.49463,-0.26994998 -3.89063,-0.39648438 -0.17821,-0.05694478 -0.31314,-0.09854087 -0.41406,-0.08007812 z M 344.68164,103.5918 c 3.64221,0.002 7.15522,0.13568 7.41992,0.40039 0.63629,0.63629 0.44567,2.14417 -0.375,2.96484 -0.99059,0.99061 -2.71522,1.44596 -5.48242,1.45117 -3.37942,0.006 -7.27112,0.53316 -8.58594,1.16016 -0.64508,0.30762 -1.17402,0.64083 -1.17382,0.74023 1.9e-4,0.0994 1.07914,0.66357 2.39648,1.25586 3.18454,1.4318 5.2832,2.79246 5.2832,3.42383 0,0.28294 -1.91797,2.49083 -4.26367,4.90625 -2.34566,2.41542 -4.85367,5.18743 -5.57227,6.16016 -1.60688,2.17512 -3.85746,4.1897 -5.65234,5.05859 -1.46109,0.70731 -3.51293,0.80794 -5.23437,0.25586 -1.36727,-0.43849 -3.1687,-2.42935 -4.86914,-5.37891 -1.77431,-3.07764 -3.66542,-5.61579 -4.57032,-6.13281 -0.44137,-0.25218 -2.41736,-0.46985 -5.14257,-0.56836 -3.82817,-0.13838 -4.48469,-0.24093 -4.85938,-0.7539 -0.30787,-0.4215 -0.3476,-0.82107 -0.13477,-1.38086 0.41264,-1.08536 0.37539,-3.52214 -0.0664,-4.36719 -0.20099,-0.38443 -0.92897,-1.31804 -1.61914,-2.07422 -1.9641,-2.15192 -1.21533,-3.56917 1.89062,-3.58008 0.73949,-0.003 3.18694,-0.60441 5.43946,-1.33789 l 4.0957,-1.33398 10.87891,-0.0488 c 7.36822,-0.0338 11.24099,-0.1728 11.99804,-0.42773 0.78458,-0.26421 4.55701,-0.39435 8.19922,-0.39258 z m -90.71484,78.49414 c 1.51643,-0.0115 2.70055,0.76366 4.54882,2.4375 3.65684,3.31161 10.30368,6.53385 24.04883,11.65429 15.169,5.65087 16.62901,6.24554 17.46875,7.13868 0.71562,0.76108 0.78632,1.14851 0.9668,5.23828 0.1495,3.3883 0.33444,4.70259 0.79883,5.65039 1.32429,2.70293 4.12617,3.43616 9.70898,2.54101 2.83523,-0.45459 3.76511,-0.48411 5.47657,-0.17578 4.5218,0.81465 7.33984,2.2039 7.33984,3.61914 0,1.63008 -1.605,5.60103 -5.00391,12.37305 -4.05539,8.08002 -3.83072,7.79921 -8.4414,10.57031 -3.10807,1.86803 -4.30134,2.00023 -6.99414,0.77735 -1.84064,-0.83588 -4.25869,-1.01212 -6.5586,-0.47852 -0.6816,0.15814 -1.50037,0.19057 -1.81836,0.0723 -0.31801,-0.11834 -4.013,-4.31994 -8.21093,-9.33594 l -7.63282,-9.11914 -3.50976,-1.85547 c -1.93047,-1.02079 -4.08507,-2.23822 -4.78907,-2.70508 -1.76668,-1.17158 -3.75027,-1.24231 -11.72265,-0.41992 -6.93767,0.71565 -8.16406,0.67798 -11.38086,-0.34766 -3.26887,-1.04224 -4.57617,-2.51166 -4.57617,-5.13672 0,-2.37306 2.24067,-27.55983 2.55664,-28.73632 0.27446,-1.02197 0.54672,-1.22822 3.11133,-2.36133 2.05255,-0.90687 3.43383,-1.39148 4.61328,-1.40039 z m 73.41797,15.13867 c 1.5373,-0.0632 2.7621,0.63661 3.48632,2.03711 0.43344,0.83818 0.41609,1.27631 -0.18164,4.54883 -1.07206,5.8692 -0.97482,5.78597 -8.50586,7.3125 -2.60576,0.52818 -5.31553,0.95731 -6.01953,0.95507 -1.54941,-0.005 -3.56425,-0.88709 -4.60351,-2.01562 -0.6856,-0.74452 -0.74407,-1.01964 -0.55469,-2.63086 0.25472,-2.16729 0.85112,-3.40407 2.03516,-4.22656 1.02604,-0.71275 10.37141,-4.87501 12.70898,-5.66016 0.57482,-0.19307 1.12233,-0.29925 1.63477,-0.32031 z"
         transform="matrix(0.26458333,0,0,0.26458333,30.84754,162.35982)" />
      <text
         xml:space="preserve"
         id="text1035"
         style="font-style:normal;font-weight:normal;font-size:10.5833px;line-height:1.25;font-family:sans-serif;white-space:pre;shape-inside:url(#rect1037);fill:#000000;fill-opacity:1;stroke:none;" />
      <text
         xml:space="preserve"
         id="text1041"
         style="font-style:normal;font-weight:normal;font-size:10.5833px;line-height:1.25;font-family:sans-serif;white-space:pre;shape-inside:url(#rect1043);fill:#000000;fill-opacity:1;stroke:none;" />
      <text
         xml:space="preserve"
         id="text1047"
         style="font-style:normal;font-weight:normal;font-size:10.5833px;line-height:1.25;font-family:sans-serif;white-space:pre;shape-inside:url(#rect1049);fill:#000000;fill-opacity:1;stroke:none;" />
    </g>
  </g>
</svg>
